<svg width="17" height="17" viewBox="0 0 17 17" fill="none" xmlns="http://www.w3.org/2000/svg">
<circle cx="8.5" cy="8.5" r="8.5" fill="#144DAF"/>
<g clip-path="url(#clip0_636_22661)">
<path d="M12.5445 4.33429C11.1618 5.44898 9.99205 6.51008 8.9211 7.89452C8.44879 8.50514 7.92356 9.22384 7.58023 9.90239C7.38423 10.2622 7.03091 10.8244 6.91046 11.365C6.25166 10.7941 5.54403 10.146 4.82001 9.63845C4.30396 9.27681 2.81757 10.0141 3.42262 10.4382C4.50701 11.198 5.40883 12.1443 6.46356 12.9379C6.90472 13.2695 7.88243 12.5494 8.11219 12.2473C8.86636 11.252 8.96944 10.0354 9.51909 8.94967C10.3583 7.28924 11.8467 5.92526 13.3162 4.74081C14.2898 3.89494 13.2842 3.73893 12.5459 4.33429" fill="white"/>
</g>
<defs>
<clipPath id="clip0_636_22661">
<rect width="10.9321" height="10.9321" fill="white" transform="translate(3.03418 3.0332)"/>
</clipPath>
</defs>
</svg>
